HIERARCHY
ROOT newVegas:Hips
{
	OFFSET 0.000000 96.479958 0.000000
	CHANNELS 6 Xposition Yposition Zposition Xrotation Yrotation Zrotation
	JOINT newVegas:Pelvis
	{
		OFFSET 0.000000 0.000000 0.000000
		CHANNELS 3 Xrotation Yrotation Zrotation
		JOINT newVegas:LeftUpLeg
		{
			OFFSET 18.735201 -5.666702 -4.541200
			CHANNELS 3 Xrotation Yrotation Zrotation
			JOINT newVegas:LeftLeg
			{
				OFFSET -0.021200 -31.938179 0.493100
				CHANNELS 3 Xrotation Yrotation Zrotation
				JOINT newVegas:LeftFoot
				{
					OFFSET 0.021200 -31.938179 -4.336299
					CHANNELS 3 Xrotation Yrotation Zrotation
					JOINT newVegas:LeftToeBase
					{
						OFFSET 0.943001 -26.722000 15.023500
						CHANNELS 3 Xrotation Yrotation Zrotation
						End Site
						{
							OFFSET 0.000000 30.670183 0.000000
						}
					}
				}
				JOINT newVegas:Left_PantLeg
				{
					OFFSET 0.663870 -9.044666 -1.108900
					CHANNELS 3 Xrotation Yrotation Zrotation
					End Site
					{
						OFFSET 1.415995 20.635357 0.000000
					}
				}
			}
		}
		JOINT newVegas:RightUpLeg
		{
			OFFSET -18.735201 -5.666702 -4.541200
			CHANNELS 3 Xrotation Yrotation Zrotation
			JOINT newVegas:RightLeg
			{
				OFFSET 0.018946 -31.938133 0.493100
				CHANNELS 3 Xrotation Yrotation Zrotation
				JOINT newVegas:RightFoot
				{
					OFFSET -0.018946 -31.938126 -4.336299
					CHANNELS 3 Xrotation Yrotation Zrotation
					JOINT newVegas:RightToeBase
					{
						OFFSET -0.943001 -26.722004 15.023500
						CHANNELS 3 Xrotation Yrotation Zrotation
						End Site
						{
							OFFSET 0.000000 30.670187 0.000000
						}
					}
				}
				JOINT newVegas:Right_PantLeg
				{
					OFFSET -0.661674 -9.044716 -1.108900
					CHANNELS 3 Xrotation Yrotation Zrotation
					End Site
					{
						OFFSET -1.415958 20.635269 0.000000
					}
				}
			}
		}
	}
	JOINT newVegas:Spine
	{
		OFFSET 0.000000 10.199997 -0.299500
		CHANNELS 3 Xrotation Yrotation Zrotation
		JOINT newVegas:Spine1
		{
			OFFSET 0.000000 11.900002 -1.516600
			CHANNELS 3 Xrotation Yrotation Zrotation
			JOINT newVegas:Spine2
			{
				OFFSET 0.000000 13.600006 -2.842500
				CHANNELS 3 Xrotation Yrotation Zrotation
				JOINT newVegas:Neck
				{
					OFFSET 0.000000 9.624100 -2.890100
					CHANNELS 3 Xrotation Yrotation Zrotation
					JOINT newVegas:Head
					{
						OFFSET 0.000000 14.068802 -1.351900
						CHANNELS 3 Xrotation Yrotation Zrotation
						JOINT newVegas:Hair_Back
						{
							OFFSET 0.000000 3.231903 -17.524799
							CHANNELS 3 Xrotation Yrotation Zrotation
							End Site
							{
								OFFSET 0.000000 19.849884 0.000000
							}
						}
						JOINT newVegas:Hair_Front
						{
							OFFSET 0.000000 31.260406 4.573800
							CHANNELS 3 Xrotation Yrotation Zrotation
							JOINT newVegas:Hair_Front1
							{
								OFFSET 0.000000 2.284103 11.993300
								CHANNELS 3 Xrotation Yrotation Zrotation
								JOINT newVegas:Hair_Front2
								{
									OFFSET 0.000000 2.284103 11.993300
									CHANNELS 3 Xrotation Yrotation Zrotation
									End Site
									{
										OFFSET 0.000000 12.208862 0.000000
									}
								}
							}
						}
						JOINT newVegas:Jowel
						{
							OFFSET 0.000000 -7.458206 6.864100
							CHANNELS 3 Xrotation Yrotation Zrotation
							End Site
							{
								OFFSET 0.000000 19.849884 0.000000
							}
						}
					}
				}
				JOINT newVegas:LeftShoulder
				{
					OFFSET 15.263000 10.923401 -0.547700
					CHANNELS 3 Xrotation Yrotation Zrotation
					JOINT newVegas:LeftArm
					{
						OFFSET 25.438599 -2.830597 -13.032500
						CHANNELS 3 Xrotation Yrotation Zrotation
						JOINT newVegas:LeftForeArm
						{
							OFFSET 29.960503 0.000000 0.000000
							CHANNELS 3 Xrotation Yrotation Zrotation
							JOINT newVegas:LeftHand
							{
								OFFSET 27.849251 0.000000 0.000000
								CHANNELS 3 Xrotation Yrotation Zrotation
								JOINT newVegas:LeftHandThumb1
								{
									OFFSET 4.487587 -3.305161 6.305391
									CHANNELS 3 Xrotation Yrotation Zrotation
									JOINT newVegas:LeftHandThumb2
									{
										OFFSET 5.480453 -3.164139 3.164143
										CHANNELS 3 Xrotation Yrotation Zrotation
										JOINT newVegas:LeftHandThumb3
										{
											OFFSET 5.159721 -2.978973 2.978967
											CHANNELS 3 Xrotation Yrotation Zrotation
											End Site
											{
												OFFSET 2.494507 5.926697 1.738678
											}
										}
									}
								}
								JOINT newVegas:LeftHandIndex1
								{
									OFFSET 18.578728 -0.527832 5.208049
									CHANNELS 3 Xrotation Yrotation Zrotation
									JOINT newVegas:LeftHandIndex2
									{
										OFFSET 3.192009 0.000000 0.000000
										CHANNELS 3 Xrotation Yrotation Zrotation
										JOINT newVegas:LeftHandIndex3
										{
											OFFSET 3.835129 0.000000 0.000000
											CHANNELS 3 Xrotation Yrotation Zrotation
											End Site
											{
												OFFSET -0.034599 3.816971 0.371180
											}
										}
									}
								}
								JOINT newVegas:LeftHandMiddle1
								{
									OFFSET 18.476105 0.000000 0.000000
									CHANNELS 3 Xrotation Yrotation Zrotation
									JOINT newVegas:LeftHandMiddle2
									{
										OFFSET 3.324875 0.000000 0.000000
										CHANNELS 3 Xrotation Yrotation Zrotation
										JOINT newVegas:LeftHandMiddle3
										{
											OFFSET 4.596550 0.000000 0.000000
											CHANNELS 3 Xrotation Yrotation Zrotation
											End Site
											{
												OFFSET 0.057701 4.578827 0.399218
											}
										}
									}
								}
								JOINT newVegas:LeftHandRing1
								{
									OFFSET 17.732719 0.121887 -4.201567
									CHANNELS 3 Xrotation Yrotation Zrotation
									JOINT newVegas:LeftHandRing2
									{
										OFFSET 2.733170 0.000000 0.000000
										CHANNELS 3 Xrotation Yrotation Zrotation
										JOINT newVegas:LeftHandRing3
										{
											OFFSET 3.178268 0.000000 0.000000
											CHANNELS 3 Xrotation Yrotation Zrotation
											End Site
											{
												OFFSET 0.119102 3.170624 0.185394
											}
										}
									}
								}
								JOINT newVegas:LeftHandPinky1
								{
									OFFSET 15.989624 -0.606689 -7.535461
									CHANNELS 3 Xrotation Yrotation Zrotation
									JOINT newVegas:LeftHandPinky2
									{
										OFFSET 2.538986 0.000000 0.000000
										CHANNELS 3 Xrotation Yrotation Zrotation
										JOINT newVegas:LeftHandPinky3
										{
											OFFSET 2.593102 0.000000 0.000000
											CHANNELS 3 Xrotation Yrotation Zrotation
											End Site
											{
												OFFSET -0.150902 2.584198 0.152708
											}
										}
									}
								}
							}
							JOINT newVegas:Left_Sleeve
							{
								OFFSET 0.267448 -0.649796 0.577675
								CHANNELS 3 Xrotation Yrotation Zrotation
								End Site
								{
									OFFSET 0.000000 15.991241 0.000000
								}
							}
							JOINT newVegas:Left_CapeC
							{
								OFFSET 15.715958 -8.608795 -6.935905
								CHANNELS 3 Xrotation Yrotation Zrotation
								JOINT newVegas:Left_CapeC1
								{
									OFFSET 0.000000 -8.688499 0.000000
									CHANNELS 3 Xrotation Yrotation Zrotation
									End Site
									{
										OFFSET 0.000000 8.688499 0.000000
									}
								}
							}
						}
						JOINT newVegas:Left_CapeB
						{
							OFFSET 26.118385 -8.608795 -7.079235
							CHANNELS 3 Xrotation Yrotation Zrotation
							JOINT newVegas:Left_CapeB1
							{
								OFFSET 0.000000 -8.688499 0.000000
								CHANNELS 3 Xrotation Yrotation Zrotation
								End Site
								{
									OFFSET 0.000000 8.688499 0.000000
								}
							}
						}
						JOINT newVegas:Left_CapeA
						{
							OFFSET 5.115639 -8.608795 -10.395809
							CHANNELS 3 Xrotation Yrotation Zrotation
							JOINT newVegas:Left_CapeA1
							{
								OFFSET 0.000000 -8.688499 0.000000
								CHANNELS 3 Xrotation Yrotation Zrotation
								End Site
								{
									OFFSET 0.000000 8.688499 0.000000
								}
							}
						}
					}
				}
				JOINT newVegas:RightShoulder
				{
					OFFSET -15.263000 10.923401 -0.547700
					CHANNELS 3 Xrotation Yrotation Zrotation
					JOINT newVegas:RightArm
					{
						OFFSET -25.438599 -2.830597 -13.032500
						CHANNELS 3 Xrotation Yrotation Zrotation
						JOINT newVegas:RightForeArm
						{
							OFFSET -29.960503 0.000000 0.000000
							CHANNELS 3 Xrotation Yrotation Zrotation
							JOINT newVegas:RightHand
							{
								OFFSET -27.849251 0.000000 0.000000
								CHANNELS 3 Xrotation Yrotation Zrotation
								JOINT newVegas:RightHandThumb1
								{
									OFFSET -4.487587 -3.305161 6.305391
									CHANNELS 3 Xrotation Yrotation Zrotation
									JOINT newVegas:RightHandThumb2
									{
										OFFSET -5.480453 -3.164139 3.164143
										CHANNELS 3 Xrotation Yrotation Zrotation
										JOINT newVegas:RightHandThumb3
										{
											OFFSET -5.159721 -2.978973 2.978967
											CHANNELS 3 Xrotation Yrotation Zrotation
											End Site
											{
												OFFSET -2.494507 5.926697 1.738678
											}
										}
									}
								}
								JOINT newVegas:RightHandIndex1
								{
									OFFSET -18.578728 -0.527832 5.208049
									CHANNELS 3 Xrotation Yrotation Zrotation
									JOINT newVegas:RightHandIndex2
									{
										OFFSET -3.192009 0.000000 0.000000
										CHANNELS 3 Xrotation Yrotation Zrotation
										JOINT newVegas:RightHandIndex3
										{
											OFFSET -3.835129 0.000000 0.000000
											CHANNELS 3 Xrotation Yrotation Zrotation
											End Site
											{
												OFFSET 0.034599 3.816971 0.371180
											}
										}
									}
								}
								JOINT newVegas:RightHandMiddle1
								{
									OFFSET -18.476105 0.000000 0.000000
									CHANNELS 3 Xrotation Yrotation Zrotation
									JOINT newVegas:RightHandMiddle2
									{
										OFFSET -3.324875 0.000000 0.000000
										CHANNELS 3 Xrotation Yrotation Zrotation
										JOINT newVegas:RightHandMiddle3
										{
											OFFSET -4.596550 0.000000 0.000000
											CHANNELS 3 Xrotation Yrotation Zrotation
											End Site
											{
												OFFSET -0.057701 4.578827 0.399218
											}
										}
									}
								}
								JOINT newVegas:RightHandRing1
								{
									OFFSET -17.732719 0.121887 -4.201567
									CHANNELS 3 Xrotation Yrotation Zrotation
									JOINT newVegas:RightHandRing2
									{
										OFFSET -2.733170 0.000000 0.000000
										CHANNELS 3 Xrotation Yrotation Zrotation
										JOINT newVegas:RightHandRing3
										{
											OFFSET -3.178268 0.000000 0.000000
											CHANNELS 3 Xrotation Yrotation Zrotation
											End Site
											{
												OFFSET -0.119102 3.170624 0.185394
											}
										}
									}
								}
								JOINT newVegas:RightHandPinky1
								{
									OFFSET -15.989624 -0.606689 -7.535461
									CHANNELS 3 Xrotation Yrotation Zrotation
									JOINT newVegas:RightHandPinky2
									{
										OFFSET -2.538986 0.000000 0.000000
										CHANNELS 3 Xrotation Yrotation Zrotation
										JOINT newVegas:RightHandPinky3
										{
											OFFSET -2.593102 0.000000 0.000000
											CHANNELS 3 Xrotation Yrotation Zrotation
											End Site
											{
												OFFSET 0.150902 2.584198 0.152708
											}
										}
									}
								}
							}
							JOINT newVegas:Right_CapeC
							{
								OFFSET -15.715958 -8.608795 -6.935905
								CHANNELS 3 Xrotation Yrotation Zrotation
								JOINT newVegas:Right_CapeC1
								{
									OFFSET 0.000000 -8.688499 0.000000
									CHANNELS 3 Xrotation Yrotation Zrotation
									End Site
									{
										OFFSET 0.000000 8.688499 0.000000
									}
								}
							}
							JOINT newVegas:Right_Sleeve
							{
								OFFSET -0.267448 -0.649994 0.577675
								CHANNELS 3 Xrotation Yrotation Zrotation
								End Site
								{
									OFFSET 0.000000 15.991302 0.000000
								}
							}
						}
						JOINT newVegas:Right_CapeA
						{
							OFFSET -5.115540 -8.608795 -10.395824
							CHANNELS 3 Xrotation Yrotation Zrotation
							JOINT newVegas:Right_CapeA1
							{
								OFFSET 0.000000 -8.688499 0.000000
								CHANNELS 3 Xrotation Yrotation Zrotation
								End Site
								{
									OFFSET 0.000000 8.688499 0.000000
								}
							}
						}
						JOINT newVegas:Right_CapeB
						{
							OFFSET -26.118187 -8.608795 -7.079266
							CHANNELS 3 Xrotation Yrotation Zrotation
							JOINT newVegas:Right_CapeB1
							{
								OFFSET 0.000000 -8.688499 0.000000
								CHANNELS 3 Xrotation Yrotation Zrotation
								End Site
								{
									OFFSET 0.000000 8.688499 0.000000
								}
							}
						}
					}
				}
				JOINT newVegas:Left_Collar
				{
					OFFSET 18.625099 8.655502 8.828100
					CHANNELS 3 Xrotation Yrotation Zrotation
					JOINT newVegas:Left_Collar1
					{
						OFFSET 14.783401 10.540405 -1.259500
						CHANNELS 3 Xrotation Yrotation Zrotation
						End Site
						{
							OFFSET 0.000000 18.199875 0.000000
						}
					}
				}
				JOINT newVegas:Collar_Back
				{
					OFFSET 0.000000 15.630707 -20.132601
					CHANNELS 3 Xrotation Yrotation Zrotation
					End Site
					{
						OFFSET 0.000000 22.523010 0.000000
					}
				}
				JOINT newVegas:Left_Peck
				{
					OFFSET 17.239599 -5.132599 25.482599
					CHANNELS 3 Xrotation Yrotation Zrotation
					End Site
					{
						OFFSET 0.000000 22.523010 0.000000
					}
				}
				JOINT newVegas:Right_Peck
				{
					OFFSET -17.239599 -5.132202 25.482599
					CHANNELS 3 Xrotation Yrotation Zrotation
					End Site
					{
						OFFSET 0.000000 22.523010 0.000000
					}
				}
				JOINT newVegas:Right_Collar
				{
					OFFSET -18.625099 8.655792 8.828100
					CHANNELS 3 Xrotation Yrotation Zrotation
					JOINT newVegas:Right_Collar1
					{
						OFFSET -14.783401 10.539993 -1.259500
						CHANNELS 3 Xrotation Yrotation Zrotation
						End Site
						{
							OFFSET 0.000000 18.199631 0.000000
						}
					}
				}
			}
		}
		JOINT newVegas:Belly
		{
			OFFSET 0.000000 -6.540398 9.014299
			CHANNELS 3 Xrotation Yrotation Zrotation
			End Site
			{
				OFFSET 0.000000 11.566666 0.000000
			}
		}
	}
	JOINT newVegas:ElvisFacialAnim_Joint
	{
		OFFSET 1.000000 -95.330101 -8.825800
		CHANNELS 3 Xrotation Yrotation Zrotation
		End Site
		{
			OFFSET 0.000000 35.315800 0.000000
		}
	}
}
MOTION
Frames: 4
Frame Time: 0.033333
-0.125825 87.937759 4.997683 4.210012 3.861673 -1.546730 0.000000 -0.000000 -0.000000 -32.208143 1.831957 -7.447885 50.874217 2.005134 3.653299 -22.589392 -1.366610 4.547674 -0.000000 -0.000000 -0.000000 0.000000 -0.000000 0.000001 -53.422229 -3.240142 -4.617245 74.789349 -8.569972 0.244409 7.294873 0.117922 -1.442493 -0.000001 -0.000001 0.000002 0.000000 0.000000 -0.000000 12.222115 2.660568 1.062695 8.059399 0.690391 -0.310377 8.057812 0.704969 -0.327160 2.855106 -0.395221 0.290065 2.855045 -0.395225 0.290066 -0.000002 -0.000000 0.000000 2.855055 -0.395224 0.290066 2.855170 -0.395226 0.290068 -0.000001 0.000000 0.000000 -0.000002 -0.000000 0.000000 -0.198853 -11.805735 -20.361656 -10.317774 -48.878230 -43.702730 -0.000011 -34.995048 -0.000029 64.411129 -12.522826 8.756007 -0.266445 4.548713 10.792695 14.081220 6.218296 10.788948 0.000000 0.000001 -0.000001 0.204046 3.652451 -14.856488 0.530654 2.438288 -24.552503 -0.000004 -0.000000 0.000000 1.303328 7.387691 -16.322383 0.454976 2.265478 -22.708584 0.000001 -0.000001 -0.000001 1.739698 8.580043 -17.229197 1.308143 3.691263 -39.016721 0.000000 0.000001 -0.000001 0.758073 5.168003 -23.679890 0.713247 2.803348 -28.544146 0.000002 -0.000003 0.000001 -0.000002 0.000001 -0.000005 -0.000002 0.000001 -0.000005 -0.000003 0.000001 -0.000004 -0.000001 -0.000001 0.000001 -0.000001 0.000000 0.000002 -0.000001 -0.000001 0.000001 -0.000003 -0.000000 0.000001 0.355629 7.588975 16.093871 -5.693516 24.918962 50.663693 -0.000009 36.728072 0.000016 43.946786 14.615994 -21.250711 -6.439863 1.666961 -14.228009 17.750572 -20.831138 7.630759 0.000000 -0.000001 0.000001 -1.315353 3.015273 14.433189 0.617895 -2.320010 29.823758 -0.000000 -0.000001 -0.000000 -1.183825 0.855425 17.866356 1.041086 -2.936759 39.031953 0.000000 -0.000001 0.000002 -0.099492 -2.403327 15.770227 1.477876 -3.404878 46.915903 -0.000001 0.000001 -0.000001 -12.813799 -11.028504 13.057104 1.001190 -2.886944 38.247079 0.000000 0.000003 0.000001 -0.000002 -0.000001 0.000000 -0.000002 0.000001 0.000000 -0.000002 -0.000002 -0.000000 0.000001 -0.000001 -0.000000 0.000001 0.000000 -0.000001 0.000001 -0.000001 -0.000000 0.000001 -0.000000 -0.000000 0.000000 -0.000000 0.000000 0.000000 -0.000000 0.000000 0.000000 -0.000000 0.000000 0.000000 -0.000000 0.000000 0.000000 -0.000000 0.000000 0.000000 -0.000000 0.000000 0.000000 -0.000000 0.000000 -0.000001 -0.000000 0.000000 0.000000 -0.000000 -0.000000 
0.050653 89.538200 -1.381562 3.046283 5.737923 -1.248412 0.000000 -0.000000 -0.000000 -34.624046 2.321385 -6.689500 44.728303 -1.891634 2.484146 -12.483204 -0.679821 4.383906 -0.000000 -0.000000 -0.000000 0.000000 0.000000 -0.000000 -46.788251 -4.872622 -5.333523 77.505216 -9.002086 0.383027 3.910247 0.129494 -0.756934 -0.000002 -0.000001 0.000001 -0.000001 0.000000 -0.000000 12.570519 3.748136 1.479616 8.173710 0.957381 -0.341216 8.171986 0.973156 -0.364439 3.076806 -0.486921 0.315881 3.076798 -0.486926 0.315883 0.000003 -0.000001 -0.000000 3.076816 -0.486922 0.315882 3.076890 -0.486927 0.315882 -0.000002 -0.000000 0.000000 0.000003 -0.000001 -0.000000 -0.323972 -12.672025 -20.880998 -17.636276 -43.363269 -51.976302 0.000010 -31.617554 0.000010 70.702047 -18.894304 19.152503 -0.266448 4.548710 10.792696 11.802278 1.195234 13.380982 0.000001 -0.000000 -0.000005 1.166205 5.183682 -11.980581 0.521390 2.417901 -24.333732 -0.000001 0.000002 -0.000001 1.674516 8.723756 -15.979064 0.511562 2.396100 -24.099786 -0.000002 0.000002 0.000000 1.748700 9.820429 -13.718929 1.495648 3.910845 -41.844358 0.000002 0.000001 0.000001 1.164186 6.362670 -20.336849 0.841549 3.027049 -31.066555 0.000001 -0.000005 0.000001 -0.000002 -0.000001 0.000001 -0.000002 -0.000001 0.000001 -0.000003 -0.000001 0.000002 0.000001 -0.000001 0.000001 0.000001 -0.000002 0.000002 0.000001 -0.000001 0.000001 -0.000000 -0.000002 0.000001 0.315467 8.020210 16.485454 -9.812592 20.438614 52.011624 0.000007 29.407909 -0.000001 42.111617 12.066239 -16.391182 -6.525208 2.409076 -13.978118 17.601281 -20.275507 8.885231 0.000001 0.000000 -0.000002 -0.462091 -0.853270 14.324293 0.616652 -2.317813 29.792565 -0.000000 0.000002 -0.000000 0.263710 -3.829242 11.138467 1.048943 -2.946384 39.184747 0.000001 0.000001 0.000002 0.998686 -6.209341 16.112399 1.481324 -3.408117 46.974418 -0.000000 -0.000001 0.000001 -8.832925 -10.499387 11.119258 1.152177 -3.068540 41.152723 0.000000 -0.000002 -0.000001 0.000003 0.000000 -0.000000 0.000000 0.000001 0.000000 0.000003 0.000000 -0.000000 -0.000002 -0.000001 -0.000001 -0.000002 0.000000 -0.000001 -0.000002 -0.000001 -0.000001 -0.000002 -0.000000 -0.000001 0.000004 -0.000000 -0.000000 0.000004 -0.000000 -0.000000 0.000004 -0.000000 -0.000000 0.000004 -0.000000 -0.000000 0.000004 -0.000000 -0.000000 0.000004 -0.000000 -0.000000 0.000004 -0.000000 -0.000000 -0.000001 -0.000001 0.000000 0.000000 -0.000000 -0.000000 
0.369911 91.871780 -7.490994 3.192832 6.134794 -1.797004 -0.000000 0.000000 -0.000000 -35.173265 1.882717 -5.120318 33.330504 -4.304436 2.302642 -0.250804 0.377884 -0.667044 0.000000 -0.000000 0.000000 0.000000 -0.000000 0.000000 -39.717854 -6.972979 -3.210136 73.435940 -7.870037 0.873464 1.082592 0.204856 -2.792999 0.000000 0.000000 0.000001 -0.000001 -0.000000 0.000000 11.648160 4.373363 3.129245 7.970710 1.060941 -0.147998 7.971275 1.074762 -0.168910 3.297311 -0.509347 0.266109 3.297292 -0.509355 0.266112 0.000000 -0.000001 0.000001 3.297398 -0.509352 0.266111 3.297243 -0.509348 0.266109 -0.000002 0.000000 -0.000000 0.000000 -0.000001 0.000000 -0.201307 -10.829232 -21.827275 -23.821743 -35.965280 -60.394090 -0.000008 -29.514111 -0.000017 57.719381 -22.950481 10.438797 -0.266452 4.548713 10.792694 10.365344 -2.901068 15.209689 0.000001 -0.000003 -0.000005 1.807541 6.929276 -4.128133 0.525223 2.426355 -24.424384 -0.000000 0.000001 -0.000001 1.804863 9.176355 -15.943685 0.573677 2.530214 -25.544856 0.000000 -0.000000 0.000000 1.583895 10.962635 -10.309217 1.749211 4.176059 -45.439316 -0.000000 0.000001 0.000001 1.070952 6.517437 -16.914820 1.042759 3.337856 -34.689786 -0.000001 0.000000 -0.000000 -0.000002 0.000001 -0.000000 -0.000002 0.000001 -0.000000 -0.000003 0.000002 0.000000 0.000000 0.000002 -0.000001 0.000000 0.000002 -0.000001 0.000000 0.000002 -0.000001 0.000000 0.000002 -0.000002 0.257310 8.556423 17.072772 -15.524069 15.984179 53.682002 -0.000001 24.279637 0.000030 36.942263 0.064904 -3.153687 -6.614063 3.151350 -13.728308 17.608100 -19.837847 10.478311 0.000000 -0.000002 -0.000001 -0.021750 -2.335930 10.546866 0.583683 -2.259328 28.967416 0.000000 0.000001 0.000000 0.435866 -5.266881 8.238272 1.106820 -3.015927 40.297826 -0.000000 -0.000000 0.000001 0.900120 -5.283251 22.106105 1.832902 -3.704564 52.637485 -0.000003 0.000000 0.000004 -6.229034 -9.670636 6.183667 1.381859 -3.312608 45.277566 0.000000 0.000001 0.000001 -0.000001 0.000000 -0.000001 -0.000001 -0.000000 -0.000001 -0.000001 -0.000000 -0.000001 0.000002 0.000000 -0.000001 0.000002 0.000000 -0.000000 0.000002 0.000000 -0.000001 0.000002 -0.000000 -0.000000 -0.000001 -0.000001 0.000000 -0.000001 -0.000001 0.000000 -0.000001 -0.000001 0.000000 -0.000001 -0.000001 0.000000 -0.000001 -0.000001 0.000000 -0.000001 -0.000001 0.000000 -0.000001 -0.000001 0.000000 -0.000000 -0.000000 0.000000 -0.000000 0.000000 -0.000000 
0.469056 93.426918 -13.893913 4.908356 5.241120 -2.002090 -0.000000 0.000000 0.000000 -35.692660 1.709082 -2.752427 18.885214 -6.743692 1.496608 12.160667 0.290468 -8.430676 0.000000 0.000000 0.000000 -0.000001 0.000000 -0.000000 -35.735529 -6.876407 -1.157249 67.633961 -3.538678 1.298322 -1.268674 0.105690 -1.885262 -0.000002 0.000000 0.000000 -0.000002 0.000000 -0.000001 10.126497 5.403836 3.876457 7.795496 1.341084 0.140290 7.801702 1.343340 0.122294 3.391741 -0.517287 0.186427 3.391770 -0.517290 0.186431 -0.000001 0.000000 -0.000000 3.391793 -0.517278 0.186425 3.391651 -0.517297 0.186428 -0.000003 0.000000 -0.000000 -0.000001 0.000000 -0.000000 0.038944 -8.625942 -21.867091 -27.685883 -28.320758 -66.934583 0.000001 -30.871072 0.000002 37.685968 -19.547981 0.253932 -0.266452 4.548714 10.792693 9.695887 -5.205725 16.146460 -0.000001 -0.000003 -0.000003 1.145337 6.251041 5.047178 0.521995 2.419267 -24.348217 -0.000001 0.000001 -0.000001 1.096584 7.019955 -14.652812 0.599090 2.582666 -26.114468 0.000001 0.000002 0.000000 0.665138 9.471879 -4.677671 1.925892 4.342499 -47.817567 0.000001 -0.000002 -0.000001 0.287790 4.499348 -7.124924 1.148894 3.485910 -36.472582 0.000001 -0.000002 0.000000 0.000001 0.000001 -0.000001 0.000001 0.000001 -0.000001 0.000001 0.000001 -0.000001 0.000000 0.000000 0.000001 0.000001 0.000000 0.000000 0.000000 0.000000 0.000001 0.000001 -0.000000 0.000001 0.277987 8.752437 16.355776 -19.270274 13.244597 54.831806 -0.000004 26.606715 0.000019 35.556087 -19.298213 8.046396 -6.706508 3.893720 -13.478502 17.770977 -19.514201 12.299849 0.000001 -0.000001 0.000001 -0.016581 3.617885 0.867683 0.419722 -1.933891 24.487642 0.000002 0.000001 -0.000000 -0.388598 0.112414 9.108224 1.176870 -3.096536 41.611736 0.000002 -0.000001 0.000002 -0.819760 -0.381728 18.280528 2.111419 -3.901066 56.834776 0.000001 0.000001 -0.000000 -7.533517 -6.632456 -9.377029 1.343659 -3.274397 44.612473 -0.000003 -0.000002 -0.000001 -0.000003 0.000000 -0.000000 -0.000002 -0.000002 0.000001 -0.000003 -0.000000 0.000001 0.000000 0.000000 0.000000 0.000000 0.000000 0.000000 0.000000 0.000000 0.000000 0.000000 -0.000000 0.000000 0.000003 0.000000 -0.000000 0.000003 0.000000 -0.000000 0.000003 0.000000 -0.000000 0.000003 0.000000 -0.000000 0.000003 0.000000 -0.000000 0.000003 0.000000 -0.000000 0.000003 0.000000 -0.000000 0.000000 -0.000000 0.000000 -0.000000 0.000000 0.000000 
